<?xml version="1.0" encoding="UTF-8" standalone="no"?>
<!-- Created with Inkscape (http://www.inkscape.org/) -->

<svg
   version="1.1"
   id="svg78"
   width="3840"
   height="2160"
   viewBox="0 0 3840 2160"
   sodipodi:docname="sway12.svg"
   xml:space="preserve"
   inkscape:version="1.2.2 (b0a8486541, 2022-12-01)"
   xmlns:inkscape="http://www.inkscape.org/namespaces/inkscape"
   xmlns:sodipodi="http://sodipodi.sourceforge.net/DTD/sodipodi-0.dtd"
   xmlns="http://www.w3.org/2000/svg"
   xmlns:svg="http://www.w3.org/2000/svg"><defs
     id="defs82" /><sodipodi:namedview
     id="namedview80"
     pagecolor="#ffffff"
     bordercolor="#000000"
     borderopacity="0.25"
     inkscape:showpageshadow="2"
     inkscape:pageopacity="0.0"
     inkscape:pagecheckerboard="0"
     inkscape:deskcolor="#d1d1d1"
     showgrid="false"
     showguides="false"
     inkscape:zoom="0.16979167"
     inkscape:cx="2709.2024"
     inkscape:cy="703.80367"
     inkscape:window-width="1890"
     inkscape:window-height="986"
     inkscape:window-x="0"
     inkscape:window-y="0"
     inkscape:window-maximized="1"
     inkscape:current-layer="g7265" /><g
     inkscape:groupmode="layer"
     inkscape:label="Image"
     id="g84"><rect
       style="display:inline;fill:#2e3440;fill-opacity:1"
       id="rect248"
       width="3839.9976"
       height="2160.0103"
       x="0.00044250488"
       y="-0.0027618408" /><g
       style="fill:none"
       id="g7265"
       transform="matrix(4.1547984,0,0,4.1547984,1543.6794,767.20215)"><path
         d="m 106.748,1.04285 c 16.577,23.88345 86.335,116.27015 38.814,135.52515 -22.2,10.405 -123.3357,-6.11 -121.8847,-3.411 -7.2551,12.146 -13.0229,21.921 -13.0229,21.921 0,0 77.9919,3.581 138.2086,-4.702 C 234.836,138.601 131.161,26.3297 106.784,1.15023 Z"
         fill="#417b7d"
         id="path7247"
         style="fill:#d9d9d9;fill-opacity:1" /><path
         d="M 106.748,1.04285 C 101.234,1.81675 0.0983887,128.792 0.0983887,128.792 c 0,0 7.2912813,2.11 23.8691113,4.554 C 29.3362,129.088 104.861,-0.697505 107.038,1.15393 106.999,1.10172 106.936,1.08247 106.849,1.09469 Z"
         fill="#ebdbb2"
         id="path7249"
         style="fill:#ff6666;fill-opacity:1" /><path
         d="M 106.747,1.04286 C 103.265,0.465208 23.677,133.235 23.677,133.235 c 0,0 72.1878,7.776 101.934,7.258 83.795,-1.444 0.638,-113.3079 -18.719,-139.598263 -0.025,-0.02592 -0.054,-0.039996 -0.089,-0.045921 z"
         fill="#ebdbb2"
         id="path7251"
         style="opacity:1;fill:#ff6666;fill-opacity:1" /><path
         d="M 106.747,1.04286 C 103.265,0.465208 23.677,133.235 23.677,133.235 c 0,0 72.1878,7.776 101.934,7.258 83.795,-1.444 0.638,-113.3079 -18.719,-139.598263 -0.025,-0.02592 -0.054,-0.039996 -0.089,-0.045921 z"
         fill="#417b7d"
         fill-opacity="0.8"
         id="path7253"
         style="display:inline;opacity:1;fill:#e5e5e5;fill-opacity:0.80000001" /></g></g></svg>
